<svg id="Layer_1" data-name="Layer 1" xmlns="http://www.w3.org/2000/svg" viewBox="0 0 203.78 27.83"><defs><style>.cls-1{fill:#e5e1da;}.cls-2{fill:#313131;}.cls-3{fill:#ce8b20;}</style></defs><title>Artboard 10</title><rect class="cls-1" width="203.78" height="27.83"/><rect class="cls-1" width="27.83" height="27.83"/><path class="cls-2" d="M40.18,11.25v2.61h3.39v1.59H40.18v2.67h4.35v1.64H38.06V9.6h6.47v1.65Z"/><path class="cls-2" d="M47.51,13.73a3.24,3.24,0,0,1,.79-1,1.63,1.63,0,0,1,1-.36,1.29,1.29,0,0,1,.8.23L50,14.06a.32.32,0,0,1-.11.19.33.33,0,0,1-.2.05l-.32,0a2.59,2.59,0,0,0-.39,0,1.36,1.36,0,0,0-.47.08,1.19,1.19,0,0,0-.37.22,1.53,1.53,0,0,0-.29.34,3.18,3.18,0,0,0-.24.46v4.42H45.7V12.54h1.14a.6.6,0,0,1,.41.1.66.66,0,0,1,.16.36Z"/><path class="cls-2" d="M52.79,13.73a3.24,3.24,0,0,1,.79-1,1.63,1.63,0,0,1,1-.36,1.29,1.29,0,0,1,.8.23l-.13,1.43a.32.32,0,0,1-.11.19.33.33,0,0,1-.2.05l-.32,0a2.59,2.59,0,0,0-.39,0,1.36,1.36,0,0,0-.47.08,1.19,1.19,0,0,0-.37.22,1.53,1.53,0,0,0-.29.34,3.18,3.18,0,0,0-.24.46v4.42H51V12.54h1.14a.6.6,0,0,1,.41.1.66.66,0,0,1,.16.36Z"/><path class="cls-2" d="M59.34,12.43a4.06,4.06,0,0,1,1.48.26,3.19,3.19,0,0,1,1.88,1.9,4.76,4.76,0,0,1,0,3.1A3.29,3.29,0,0,1,62,18.86a3.21,3.21,0,0,1-1.14.74,4,4,0,0,1-1.48.26,4.08,4.08,0,0,1-1.49-.26,3.2,3.2,0,0,1-1.14-.74A3.32,3.32,0,0,1,56,17.69a4.7,4.7,0,0,1,0-3.1,3.3,3.3,0,0,1,.74-1.17,3.24,3.24,0,0,1,1.14-.74A4.1,4.1,0,0,1,59.34,12.43Zm0,6a1.4,1.4,0,0,0,1.23-.57,3,3,0,0,0,.4-1.7,3,3,0,0,0-.4-1.69,1.4,1.4,0,0,0-1.23-.57,1.42,1.42,0,0,0-1.25.57,3,3,0,0,0-.4,1.69,3,3,0,0,0,.4,1.7A1.42,1.42,0,0,0,59.34,18.42Z"/><path class="cls-2" d="M66,13.73a3.24,3.24,0,0,1,.79-1,1.63,1.63,0,0,1,1-.36,1.29,1.29,0,0,1,.8.23l-.13,1.43a.32.32,0,0,1-.11.19.33.33,0,0,1-.2.05l-.32,0a2.59,2.59,0,0,0-.39,0,1.36,1.36,0,0,0-.47.08,1.19,1.19,0,0,0-.37.22,1.53,1.53,0,0,0-.29.34,3.18,3.18,0,0,0-.24.46v4.42H64.17V12.54h1.14a.6.6,0,0,1,.41.1.66.66,0,0,1,.16.36Z"/><rect class="cls-2" x="27.33" width="1" height="27.83"/><rect class="cls-2" x="119.77" width="1" height="27.83"/><rect class="cls-2" x="147.6" width="1" height="27.83"/><rect class="cls-2" x="175.42" width="1" height="27.83"/><rect class="cls-2" width="203.75" height="2.72"/><circle class="cls-3" cx="134.17" cy="15.35" r="11.18"/><path class="cls-1" d="M137.22,16.31V17.4a.36.36,0,0,1-.38.37H136v2.42h-1.68V17.78h-4.19a.54.54,0,0,1-.33-.11.46.46,0,0,1-.19-.29l-.2-1L134.21,10H136v6.29Zm-2.86,0v-3q0-.24,0-.51c0-.18,0-.37.05-.56l-2.94,4.09Z"/><circle class="cls-3" cx="162.46" cy="15.35" r="11.18"/><path class="cls-1" d="M166.53,15.11a8.26,8.26,0,0,1-.29,2.31,4.73,4.73,0,0,1-.79,1.62,3.17,3.17,0,0,1-1.19,1,3.7,3.7,0,0,1-3,0,3.13,3.13,0,0,1-1.18-1,4.78,4.78,0,0,1-.78-1.62,8.34,8.34,0,0,1-.28-2.31,8.31,8.31,0,0,1,.28-2.31,4.8,4.8,0,0,1,.78-1.62,3.11,3.11,0,0,1,1.18-1,3.7,3.7,0,0,1,3,0,3.16,3.16,0,0,1,1.19,1,4.76,4.76,0,0,1,.79,1.62A8.23,8.23,0,0,1,166.53,15.11Zm-2,0a8.67,8.67,0,0,0-.15-1.78,3.62,3.62,0,0,0-.4-1.11,1.36,1.36,0,0,0-1.22-.73,1.39,1.39,0,0,0-.65.16,1.44,1.44,0,0,0-.55.57,3.66,3.66,0,0,0-.39,1.11,8.91,8.91,0,0,0-.15,1.78,9,9,0,0,0,.15,1.79,3.65,3.65,0,0,0,.39,1.11,1.43,1.43,0,0,0,.55.57,1.39,1.39,0,0,0,.65.16A1.36,1.36,0,0,0,164,18a3.61,3.61,0,0,0,.4-1.11A8.71,8.71,0,0,0,164.53,15.11Z"/><circle class="cls-3" cx="190.09" cy="15.35" r="11.18"/><path class="cls-1" d="M193.14,16.31V17.4a.38.38,0,0,1-.1.26.37.37,0,0,1-.28.11H192v2.42h-1.68V17.78h-4.19a.54.54,0,0,1-.33-.11.46.46,0,0,1-.19-.29l-.2-1L190.13,10H192v6.29Zm-2.86,0v-3q0-.24,0-.51c0-.18,0-.37.05-.56l-2.94,4.09Z"/><rect class="cls-2" x="3.52" y="13.11" width="17.13" height="3.6"/><rect class="cls-2" x="15.34" y="5.32" width="3.6" height="12.73" transform="translate(-3.25 15.54) rotate(-45)"/><rect class="cls-2" x="10.77" y="16.34" width="12.73" height="3.6" transform="translate(-7.81 17.43) rotate(-45)"/></svg>