<svg id="Layer_1" data-name="Layer 1" xmlns="http://www.w3.org/2000/svg" viewBox="0 0 3114 1761.56"><defs><style>.cls-1,.cls-10,.cls-2,.cls-4,.cls-5,.cls-6,.cls-7,.cls-8,.cls-9{fill:none;}.cls-1{stroke:#6952a1;}.cls-1,.cls-10,.cls-2,.cls-6{stroke-miterlimit:10;}.cls-1,.cls-2,.cls-6,.cls-8{stroke-width:11.25px;}.cls-2{stroke:#e01eae;}.cls-3{fill:#313131;}.cls-4{stroke:#ec1950;}.cls-4,.cls-5,.cls-7,.cls-8,.cls-9{stroke-linejoin:round;}.cls-10,.cls-4,.cls-5{stroke-width:11.25px;}.cls-5{stroke:#f37820;}.cls-6{stroke:#f6eb0f;}.cls-10,.cls-7{stroke:#313131;}.cls-7,.cls-9{stroke-width:11.25px;}.cls-8{stroke:#6cbd45;}.cls-9{stroke:#2ec1dd;}</style></defs><title>InterchangeLogo</title><line class="cls-1" x1="1650.99" y1="937.15" y2="937.15"/><line class="cls-2" x1="1658.94" y1="919.78" x2="990.96" y2="251.8"/><path class="cls-3" d="M1755.45,919.87h-6.92v20.07h-5.71V919.87h-6.92v-4.52h19.55Z"/><path class="cls-3" d="M1779.8,915.34v24.59h-5.74v-10.4h-10v10.4h-5.74V915.34h5.74v10.28h10V915.34Z"/><path class="cls-3" d="M1790.3,919.73v5.74H1798v4.22h-7.73v5.86h10.09v4.39h-15.83V915.34h15.83v4.39Z"/><path class="cls-3" d="M1743.51,970.88h-5.74V946.29h5.74Z"/><path class="cls-3" d="M1769.74,946.29v24.59h-3a2.58,2.58,0,0,1-1.11-.21,2.71,2.71,0,0,1-.89-.73l-11.6-14.67c0,.44.08.86.09,1.27s0,.8,0,1.16v13.18h-5V946.29h3a4.86,4.86,0,0,1,.63,0,1.61,1.61,0,0,1,.46.13,1.54,1.54,0,0,1,.39.26,4.56,4.56,0,0,1,.42.46l11.7,14.77q-.08-.71-.12-1.38t0-1.26v-13Z"/><path class="cls-3" d="M1792.18,950.81h-6.92v20.07h-5.71V950.81h-6.92v-4.52h19.55Z"/><path class="cls-3" d="M1800.8,950.68v5.74h7.73v4.22h-7.73v5.86h10.09v4.39h-15.83V946.29h15.83v4.39Z"/><path class="cls-3" d="M1834.53,970.88h-5.17a2.19,2.19,0,0,1-2.06-1.08l-4.08-7.14a1.66,1.66,0,0,0-1.65-.88h-1.45v9.1h-5.71V946.29h8a16.44,16.44,0,0,1,4.55.55,8.56,8.56,0,0,1,3.07,1.53,5.79,5.79,0,0,1,1.73,2.31,7.68,7.68,0,0,1,.54,2.9,7.79,7.79,0,0,1-.32,2.26,7,7,0,0,1-.95,2,7.19,7.19,0,0,1-1.54,1.61,8.27,8.27,0,0,1-2.12,1.17,5.14,5.14,0,0,1,1,.72,5,5,0,0,1,.88,1Zm-12.12-13a5.87,5.87,0,0,0,2-.3,3.59,3.59,0,0,0,1.34-.82,3.13,3.13,0,0,0,.76-1.22,4.71,4.71,0,0,0,.24-1.51,3.17,3.17,0,0,0-1.06-2.53,4.91,4.91,0,0,0-3.27-.91h-2.29v7.29Z"/><path class="cls-3" d="M1852.74,964.52a1.14,1.14,0,0,1,.41.08,1.1,1.1,0,0,1,.39.26l2.26,2.38a9.39,9.39,0,0,1-3.72,2.93,13,13,0,0,1-5.29,1,12.61,12.61,0,0,1-5-1,10.86,10.86,0,0,1-3.76-2.63,11.59,11.59,0,0,1-2.37-4,14.7,14.7,0,0,1-.83-5,13.85,13.85,0,0,1,.89-5.06,11.74,11.74,0,0,1,2.52-4,11.32,11.32,0,0,1,3.88-2.6,13,13,0,0,1,5-.93,13.29,13.29,0,0,1,2.61.24,12.79,12.79,0,0,1,2.29.68,10.45,10.45,0,0,1,2,1,10.25,10.25,0,0,1,1.59,1.32l-1.92,2.58a2.45,2.45,0,0,1-.44.43,1.14,1.14,0,0,1-.71.19,1.27,1.27,0,0,1-.57-.13,6.06,6.06,0,0,1-.57-.33l-.67-.42a5.08,5.08,0,0,0-.86-.42,7.06,7.06,0,0,0-1.17-.33,7.88,7.88,0,0,0-1.56-.14,6.29,6.29,0,0,0-2.59.52,5.65,5.65,0,0,0-2,1.53,7.08,7.08,0,0,0-1.32,2.46,11,11,0,0,0-.46,3.33,10.12,10.12,0,0,0,.51,3.36,7.37,7.37,0,0,0,1.4,2.47,5.93,5.93,0,0,0,2.07,1.53,6.17,6.17,0,0,0,2.53.52,12.09,12.09,0,0,0,1.42-.08,6.37,6.37,0,0,0,1.2-.25,4.85,4.85,0,0,0,1-.47,6.59,6.59,0,0,0,1-.75,2,2,0,0,1,.44-.28A1.15,1.15,0,0,1,1852.74,964.52Z"/><path class="cls-3" d="M1879.77,946.29v24.59H1874v-10.4h-10v10.4h-5.74V946.29H1864v10.28h10V946.29Z"/><path class="cls-3" d="M1906.59,970.88h-4.42a1.93,1.93,0,0,1-1.2-.35,2.2,2.2,0,0,1-.69-.89l-1.45-4.29h-9.35l-1.45,4.29a2.05,2.05,0,0,1-.67.85,1.86,1.86,0,0,1-1.19.38h-4.46l9.52-24.59h5.84Zm-9.06-9.4-2.28-6.74q-.25-.64-.54-1.51t-.57-1.88q-.25,1-.54,1.91t-.54,1.52l-2.26,6.7Z"/><path class="cls-3" d="M1930,946.29v24.59h-3a2.58,2.58,0,0,1-1.11-.21,2.71,2.71,0,0,1-.89-.73l-11.6-14.67c0,.44.08.86.09,1.27s0,.8,0,1.16v13.18h-5V946.29h3a4.86,4.86,0,0,1,.63,0,1.61,1.61,0,0,1,.46.13,1.54,1.54,0,0,1,.39.26,4.56,4.56,0,0,1,.42.46l11.7,14.77q-.08-.71-.12-1.38t0-1.26v-13Z"/><path class="cls-3" d="M1946.58,958.14h8.74v10.38a12.92,12.92,0,0,1-4,2,15.83,15.83,0,0,1-4.46.63,15.35,15.35,0,0,1-5.53-1,12.73,12.73,0,0,1-4.26-2.63,11.54,11.54,0,0,1-2.73-4,12.85,12.85,0,0,1-1-5,13.61,13.61,0,0,1,.91-5.06,11.39,11.39,0,0,1,2.61-4,11.83,11.83,0,0,1,4.1-2.6,14.84,14.84,0,0,1,5.38-.93,15.65,15.65,0,0,1,2.89.25,14.15,14.15,0,0,1,2.49.69,11.46,11.46,0,0,1,2.08,1,11.31,11.31,0,0,1,1.69,1.32l-1.65,2.51a1.59,1.59,0,0,1-1,.73,1.77,1.77,0,0,1-1.33-.3q-.68-.4-1.27-.7a7.78,7.78,0,0,0-1.22-.48,8.14,8.14,0,0,0-1.32-.27,12.85,12.85,0,0,0-1.55-.08,7.08,7.08,0,0,0-2.89.57,6.21,6.21,0,0,0-2.19,1.6,7.22,7.22,0,0,0-1.39,2.47,10,10,0,0,0-.49,3.22,10.34,10.34,0,0,0,.54,3.48,7.19,7.19,0,0,0,1.53,2.57,6.54,6.54,0,0,0,2.36,1.6,8.17,8.17,0,0,0,3,.55,7.94,7.94,0,0,0,1.87-.2,10.41,10.41,0,0,0,1.63-.54v-3.73h-2.43a1.18,1.18,0,0,1-.84-.29,1,1,0,0,1-.3-.73Z"/><path class="cls-3" d="M1964.89,950.68v5.74h7.73v4.22h-7.73v5.86H1975v4.39h-15.83V946.29H1975v4.39Z"/><polyline class="cls-4" points="1712.11 925.16 1810.69 826.25 3114 826.25"/><polyline class="cls-5" points="1694.76 910.63 1824.78 780.75 1822.44 65.47"/><line class="cls-6" x1="1707.53" y1="913.98" x2="2617.53" y2="3.98"/><polyline class="cls-7" points="1553.69 1761.56 1553.69 1083.86 1666.96 970.59"/><line class="cls-8" x1="1088.27" y1="1533.69" x2="1658.94" y2="963.02"/><polyline class="cls-9" points="926.34 1442.41 1432.44 948.25 1650.99 948.25"/><circle class="cls-10" cx="1683.46" cy="942.78" r="32.47"/></svg>