<?xml version="1.0" encoding="utf-8"?>
<!-- Generator: Adobe Illustrator 17.1.0, SVG Export Plug-In . SVG Version: 6.00 Build 0)  -->
<!DOCTYPE svg PUBLIC "-//W3C//DTD SVG 1.1//EN" "http://www.w3.org/Graphics/SVG/1.1/DTD/svg11.dtd">
<svg version="1.1" id="Layer_1" xmlns="http://www.w3.org/2000/svg" xmlns:xlink="http://www.w3.org/1999/xlink" x="0px" y="0px"
	 viewBox="0 0 720 720" enable-background="new 0 0 720 720" xml:space="preserve">
<g id="lW1bhD_3_">
	<g>
		<path fill="#FFFFFF" d="M0,495c0-89,0-178,0-267c1-1.7,2-3.4,2.9-5.1c12.5-24.3,38.3-37.7,65.6-33.9c24.9,3.4,46.9,24.8,51.8,50.5
			c0.7,3.6,0.9,7.2,1.4,10.9c6.2,0,12.1,0,18.2,0c0-1.9,0.1-3.4,0-4.8c-2.3-48.4-49.3-84.7-96.7-74.9c-16.8,3.5-31,11.7-43.3,23.4
			C0,129.3,0,64.7,0,0c240,0,480,0,720,0c0,57,0,114,0,171c-46.6,0-93.2,0-139.8,0c0,127.2,0,253.8,0,380.8c14.6,0,28.7,0,42.9,0
			c32.3,0,64.6,0.1,97,0.2c0,56,0,111.9,0,168c-240,0-480,0-720,0c0-63.3,0-126.7,0-190c1,0.8,2.2,1.4,3.1,2.3
			c45.8,42.1,118.2,21.2,134.2-38.8c1.8-6.6,2.2-13.5,3.3-20.5c-7.2,0-13.1,0-19,0c-0.2,1.9-0.3,3.4-0.5,4.9
			c-2.4,27.9-23.7,51.5-51.1,56.7c-26.6,5.1-54.4-9-67-33.8C2,498.8,1,496.9,0,495z M381.9,551.5c1.6,0.1,2.8,0.3,3.9,0.3
			c25.2,0,50.3,0.2,75.5-0.1c44.2-0.6,79.5-36.1,79.6-80.4c0.2-73.3,0.2-146.6,0-219.9c-0.1-44.7-35.9-80.2-80.5-80.4
			c-24.5-0.1-49,0-73.5,0c-1.6,0-3.2,0-4.9,0C381.9,298.1,381.9,424.5,381.9,551.5z M179.1,362c0,37.3-0.1,74.6,0,112
			c0.2,51.5,49.5,90.2,99.8,78.5c36.4-8.5,62.7-41.2,62.9-79.2c0.3-74,0.1-148,0.1-221.9c0-4.6-0.3-9.4-1.1-13.9
			c-7.4-42.1-45-71.6-86.6-68.1c-42.6,3.5-74.9,38.9-75,82.2C179,288.4,179.1,325.2,179.1,362z"/>
		<path fill="#FFFFFF" d="M720,190c0,114.3,0,228.7,0,343c-40.4,0-80.8,0-121.3,0c0-60.5,0-120.1,0-180.4c35.5,0,70.5,0,105.6,0
			c0-6.5,0-12.4,0-18.7c-17.8,0-35.3,0-52.8,0c-17.6,0-35.2,0-52.9,0c0-48.3,0-96,0-144C639.4,190,679.7,190,720,190z"/>
		<path fill="#FFFFFF" d="M400.6,532.6c0-114.1,0-228,0-342.6c1.8,0,3.6,0,5.3,0c17.2,0,34.3,0,51.5,0c37,0,63.9,26.8,64.2,64
			c0.2,30.7,0,61.3,0,92c0,40.8,0.1,81.6,0,122.5c-0.1,30-18,54.4-45.6,62c-5.2,1.4-10.8,2.3-16.2,2.4c-18.7,0.3-37.3,0.1-56,0.1
			C402.8,532.9,401.8,532.7,400.6,532.6z"/>
		<path fill="#FFFFFF" d="M197.8,361.6c0-36.7,0-73.3,0-110c0-34.9,28.1-63.3,62.5-63.5c33.9-0.2,62.5,28.3,62.6,62.9
			c0.2,73.6,0.2,147.3,0,220.9c-0.1,33.3-25.3,60.7-57.5,63.2c-32.5,2.5-61.2-20.3-66.9-53.2c-0.6-3.4-0.7-7-0.7-10.4
			C197.8,434.9,197.8,398.2,197.8,361.6z"/>
	</g>
</g>
</svg>
