<?xml version="1.0" encoding="utf-8"?>
<!-- Generator: Adobe Illustrator 17.1.0, SVG Export Plug-In . SVG Version: 6.00 Build 0)  -->
<!DOCTYPE svg PUBLIC "-//W3C//DTD SVG 1.1//EN" "http://www.w3.org/Graphics/SVG/1.1/DTD/svg11.dtd">
<svg version="1.1" xmlns="http://www.w3.org/2000/svg" xmlns:xlink="http://www.w3.org/1999/xlink" x="0px" y="0px"
	 viewBox="0 0 1333.7 803.1" enable-background="new 0 0 1333.7 803.1" xml:space="preserve">
<g id="Layer_01">
	<g>
		<g>
			<rect x="1009.7" y="299.1" fill="#E54762" width="324" height="504"/>
			<g>
				<path fill="#FFFFFF" d="M1128.7,514.2c28.7,0,57.4,0,86.1,0c46.5-30.8,46.5-99.1,0-130c-28.7,0-57.4,0-86.1,0
					C1082.1,415,1082.1,483.3,1128.7,514.2z"/>
				<path fill="#E54762" d="M1172.5,475c-0.5,0-1,0-1.5,0c-7,0-12.6,5.6-12.6,12.6c0,3.8,0,7.6,0,11.3c8.9,0,17.8,0,26.7,0
					c0-3.8,0-7.6,0-11.3C1185.1,480.6,1179.4,475,1172.5,475z"/>
				<rect x="1196.2" y="411.6" fill="#E54762" width="10.6" height="40.6"/>
				<rect x="1136.6" y="411.6" fill="#E54762" width="10.6" height="40.6"/>
			</g>
			<g>
				<path fill="#FFFFFF" d="M1128.7,718.1c28.7,0,57.4,0,86.1,0c46.5-30.8,46.5-99.1,0-130c-28.7,0-57.4,0-86.1,0
					C1082.1,618.9,1082.1,687.2,1128.7,718.1z"/>
				<rect x="1136.6" y="615.6" fill="#E54762" width="10.6" height="40.6"/>
				<rect x="1196.2" y="615.6" fill="#E54762" width="10.6" height="40.6"/>
				<path fill="#E54762" d="M1172.5,678.9c-0.5,0-1,0-1.5,0c-7,0-12.6,5.6-12.6,12.6c0,3.8,0,7.6,0,11.3c8.9,0,17.8,0,26.7,0
					c0-3.8,0-7.6,0-11.3C1185.1,684.5,1179.4,678.9,1172.5,678.9z"/>
			</g>
			<g>
				
					<line fill="none" stroke="#E54762" stroke-width="5" stroke-linecap="round" stroke-linejoin="round" x1="1189.6" y1="549.4" x2="1153.8" y2="549.4"/>
				
					<circle fill="#FFFFFF" stroke="#E54762" stroke-width="5" stroke-linecap="round" stroke-linejoin="round" cx="1171.7" cy="551.1" r="18"/>
				
					<line fill="none" stroke="#E54762" stroke-width="5" stroke-linecap="round" stroke-linejoin="round" x1="1189.6" y1="551.9" x2="1153.8" y2="551.9"/>
			</g>
		</g>
		<g>
			<path fill="#E54762" d="M322.7,589.2c11.5,7.1,23.1,14.1,34.6,21.2c1.8-3,3.7-6,5.5-9c-11.5-7.1-23.1-14.1-34.6-21.2
				c4.9-8.1,9.9-16.2,14.8-24.3c4.1-6.8,2-15.6-4.8-19.8c-3.6-2.2-7.1-4.3-10.7-6.5c-20.8-12.7-46.3-14.9-69-6.1
				c-3.1,1.2-5.3,3-7.1,5.9c-12.9,21.1-25.8,42.2-38.6,63.3c-2.8,4.5-3.7,8.8-3,14.1c3.1,23.2,16.5,43.7,36.4,55.9
				c3.6,2.2,7.1,4.3,10.7,6.5c6.8,4.1,15.6,2,19.8-4.8c4.9-8.1,9.9-16.2,14.8-24.3c11.5,7.1,23.1,14.1,34.6,21.2c1.8-3,3.7-6,5.5-9
				c-11.5-7.1-23.1-14.1-34.6-21.2C305.6,617.1,314.2,603.1,322.7,589.2z"/>
			<path fill="none" stroke="#E54762" stroke-width="22" stroke-linejoin="round" d="M257.5,572.4C188.1,543.7,118,561,69.1,544.3
				c-48.9-16.7-76.6-67.3-44-105.1c32.6-37.7,125.4-62.5,186.8-129.5s91.6-176.2,95.4-319.6"/>
		</g>
	</g>
</g>
<g id="Make2D::visible::lines::Layer_01">
</g>
<g id="Make2D::hidden::lines::Layer_01">
</g>
</svg>
