<svg id="Layer_1" data-name="Layer 1" xmlns="http://www.w3.org/2000/svg" viewBox="0 0 203.78 27.83"><defs><style>.cls-1{fill:#e5e1da;}.cls-2{fill:#313131;}</style></defs><title>Artboard 12</title><rect class="cls-1" width="203.78" height="27.83"/><rect class="cls-1" width="27.83" height="27.83"/><path class="cls-2" d="M43.57,11.55a.79.79,0,0,1-.2.23.44.44,0,0,1-.26.07.65.65,0,0,1-.33-.11l-.42-.23a4,4,0,0,0-.55-.23,2.17,2.17,0,0,0-.72-.11A1.59,1.59,0,0,0,40,11.5a1.09,1.09,0,0,0-.36.85.8.8,0,0,0,.2.56,1.76,1.76,0,0,0,.53.38,4.86,4.86,0,0,0,.74.29l.85.28a7.27,7.27,0,0,1,.85.35,3,3,0,0,1,.74.51,2.34,2.34,0,0,1,.53.75,2.64,2.64,0,0,1,.2,1.08,3.47,3.47,0,0,1-.24,1.3,3.09,3.09,0,0,1-.7,1.06,3.22,3.22,0,0,1-1.12.71,4.17,4.17,0,0,1-1.52.26,4.78,4.78,0,0,1-1-.1,5.61,5.61,0,0,1-.92-.27,5.15,5.15,0,0,1-.84-.42,3.73,3.73,0,0,1-.69-.55l.62-1a.62.62,0,0,1,.2-.19.52.52,0,0,1,.27-.07.72.72,0,0,1,.4.14l.48.31a3.9,3.9,0,0,0,.63.31,2.4,2.4,0,0,0,.87.14,1.73,1.73,0,0,0,1.14-.34,1.23,1.23,0,0,0,.4-1,.94.94,0,0,0-.2-.62,1.61,1.61,0,0,0-.52-.4,4.24,4.24,0,0,0-.73-.28L40,15.29a7.17,7.17,0,0,1-.85-.34,2.63,2.63,0,0,1-.74-.52,2.45,2.45,0,0,1-.52-.8,3.07,3.07,0,0,1-.2-1.18,2.8,2.8,0,0,1,.88-2,3.29,3.29,0,0,1,1.07-.67,3.91,3.91,0,0,1,1.45-.25,4.93,4.93,0,0,1,1.7.28,3.8,3.8,0,0,1,1.32.79Z"/><path class="cls-2" d="M47.7,19.87a2.43,2.43,0,0,1-.87-.14,1.69,1.69,0,0,1-1-1.05,2.59,2.59,0,0,1-.13-.85V13.93H45a.36.36,0,0,1-.37-.39v-.76l1.16-.21.39-1.87a.39.39,0,0,1,.43-.32h1v2.2h1.86v1.34H47.6v3.77a.73.73,0,0,0,.14.48.5.5,0,0,0,.41.17.81.81,0,0,0,.24,0l.17-.07.13-.07a.27.27,0,0,1,.12,0,.24.24,0,0,1,.14,0,.43.43,0,0,1,.11.13l.58.92a2.85,2.85,0,0,1-.9.48A3.4,3.4,0,0,1,47.7,19.87Z"/><path class="cls-2" d="M50.33,13.54a4.3,4.3,0,0,1,1.41-.86,4.78,4.78,0,0,1,1.67-.28,3,3,0,0,1,1.15.21,2.47,2.47,0,0,1,.86.58,2.57,2.57,0,0,1,.54.89,3.29,3.29,0,0,1,.19,1.13v4.54h-.88a.9.9,0,0,1-.42-.08.57.57,0,0,1-.23-.32l-.15-.46a6.56,6.56,0,0,1-.53.42,3,3,0,0,1-.53.3,2.74,2.74,0,0,1-.58.19,3.53,3.53,0,0,1-.7.06,2.83,2.83,0,0,1-.87-.13,1.88,1.88,0,0,1-.67-.37,1.64,1.64,0,0,1-.44-.62A2.22,2.22,0,0,1,50,17.9a1.74,1.74,0,0,1,.2-.8,2,2,0,0,1,.7-.72,4.43,4.43,0,0,1,1.32-.54,9.24,9.24,0,0,1,2.06-.24v-.37a1.46,1.46,0,0,0-.29-1,1.05,1.05,0,0,0-.83-.32,2,2,0,0,0-.67.09,3.35,3.35,0,0,0-.47.2l-.37.2a.84.84,0,0,1-.41.09.56.56,0,0,1-.34-.1.93.93,0,0,1-.23-.24Zm3.93,3.2a9,9,0,0,0-1.18.12,2.83,2.83,0,0,0-.75.23,1,1,0,0,0-.39.32.7.7,0,0,0-.12.39.69.69,0,0,0,.24.59,1.07,1.07,0,0,0,.65.17,1.9,1.9,0,0,0,.84-.17,2.51,2.51,0,0,0,.7-.54Z"/><path class="cls-2" d="M65.07,19.76H63.14V13.93h-3.2v3.77a.73.73,0,0,0,.14.48.5.5,0,0,0,.41.17.81.81,0,0,0,.24,0l.17-.07.13-.07a.27.27,0,0,1,.12,0,.24.24,0,0,1,.14,0,.43.43,0,0,1,.11.13l.58.92a2.85,2.85,0,0,1-.9.48,3.4,3.4,0,0,1-1,.16,2.43,2.43,0,0,1-.87-.14,1.69,1.69,0,0,1-1-1.05,2.59,2.59,0,0,1-.13-.85V13.93h-.68a.36.36,0,0,1-.37-.39v-.76l1.16-.21.39-1.87a.39.39,0,0,1,.43-.32h1v2.2h5.12Zm.3-9.28a1.07,1.07,0,0,1-.1.45,1.21,1.21,0,0,1-.26.37,1.29,1.29,0,0,1-.39.25,1.19,1.19,0,0,1-.47.09,1.11,1.11,0,0,1-.45-.09,1.26,1.26,0,0,1-.37-.25,1.19,1.19,0,0,1-.26-.37,1.11,1.11,0,0,1-.09-.45,1.13,1.13,0,0,1,.09-.46,1.23,1.23,0,0,1,.26-.37,1.21,1.21,0,0,1,.37-.25,1.1,1.1,0,0,1,.45-.09,1.17,1.17,0,0,1,.47.09,1.23,1.23,0,0,1,.65.63A1.08,1.08,0,0,1,65.37,10.48Z"/><path class="cls-2" d="M70,12.43a4.06,4.06,0,0,1,1.48.26,3.19,3.19,0,0,1,1.88,1.9,4.76,4.76,0,0,1,0,3.1,3.29,3.29,0,0,1-.74,1.17,3.21,3.21,0,0,1-1.14.74,4,4,0,0,1-1.48.26,4.08,4.08,0,0,1-1.49-.26,3.2,3.2,0,0,1-1.14-.74,3.32,3.32,0,0,1-.74-1.17,4.7,4.7,0,0,1,0-3.1,3.3,3.3,0,0,1,.74-1.17,3.24,3.24,0,0,1,1.14-.74A4.1,4.1,0,0,1,70,12.43Zm0,6a1.4,1.4,0,0,0,1.23-.57,3,3,0,0,0,.4-1.7,3,3,0,0,0-.4-1.69A1.4,1.4,0,0,0,70,13.89a1.42,1.42,0,0,0-1.25.57,3,3,0,0,0-.4,1.69,3,3,0,0,0,.4,1.7A1.42,1.42,0,0,0,70,18.42Z"/><path class="cls-2" d="M76.6,13.38A4.61,4.61,0,0,1,77,13a3.08,3.08,0,0,1,.5-.3,2.74,2.74,0,0,1,.57-.2,2.94,2.94,0,0,1,.66-.07,2.53,2.53,0,0,1,1,.2,2.13,2.13,0,0,1,.77.57,2.43,2.43,0,0,1,.47.87,3.71,3.71,0,0,1,.16,1.11v4.58H79.29V15.18a1.41,1.41,0,0,0-.28-.93,1,1,0,0,0-.83-.33,1.7,1.7,0,0,0-.76.17,2.58,2.58,0,0,0-.68.49v5.19H74.81V12.54H76a.47.47,0,0,1,.48.34Z"/><path class="cls-2" d="M93.25,17.26a.39.39,0,0,1,.29.13l.83.89a4,4,0,0,1-1.53,1.19,5.32,5.32,0,0,1-2.17.41,5.19,5.19,0,0,1-2.05-.39,4.44,4.44,0,0,1-1.55-1.08,4.8,4.8,0,0,1-1-1.64,6.44,6.44,0,0,1-.18-3.52A5.06,5.06,0,0,1,86.4,12a4.87,4.87,0,0,1,.76-1,4.58,4.58,0,0,1,1-.79,4.85,4.85,0,0,1,1.22-.5,5.61,5.61,0,0,1,1.41-.17,5.51,5.51,0,0,1,1.06.1,5.17,5.17,0,0,1,.93.27,4.34,4.34,0,0,1,.8.42,4.5,4.5,0,0,1,.66.54l-.71,1a.66.66,0,0,1-.16.16.45.45,0,0,1-.27.07.59.59,0,0,1-.34-.12l-.42-.27a3.07,3.07,0,0,0-.62-.27,3.2,3.2,0,0,0-.95-.12,2.91,2.91,0,0,0-1.17.23,2.54,2.54,0,0,0-.91.67,3.08,3.08,0,0,0-.59,1.07,4.63,4.63,0,0,0-.21,1.45,4.36,4.36,0,0,0,.23,1.46,3.2,3.2,0,0,0,.62,1.08,2.63,2.63,0,0,0,.92.67,2.84,2.84,0,0,0,1.13.23,5.42,5.42,0,0,0,.65,0A2.72,2.72,0,0,0,92,18a2.47,2.47,0,0,0,.47-.22,2.92,2.92,0,0,0,.44-.34l.16-.11A.4.4,0,0,1,93.25,17.26Z"/><path class="cls-2" d="M97.24,9.32V19.76H95.31V9.32Z"/><path class="cls-2" d="M102.11,12.43a4.06,4.06,0,0,1,1.48.26,3.19,3.19,0,0,1,1.88,1.9,4.76,4.76,0,0,1,0,3.1,3.29,3.29,0,0,1-.74,1.17,3.21,3.21,0,0,1-1.14.74,4,4,0,0,1-1.48.26,4.08,4.08,0,0,1-1.49-.26,3.2,3.2,0,0,1-1.14-.74,3.32,3.32,0,0,1-.74-1.17,4.7,4.7,0,0,1,0-3.1,3.3,3.3,0,0,1,.74-1.17,3.24,3.24,0,0,1,1.14-.74A4.1,4.1,0,0,1,102.11,12.43Zm0,6a1.4,1.4,0,0,0,1.23-.57,3,3,0,0,0,.4-1.7,3,3,0,0,0-.4-1.69,1.4,1.4,0,0,0-1.23-.57,1.42,1.42,0,0,0-1.25.57,3,3,0,0,0-.4,1.69,3,3,0,0,0,.4,1.7A1.42,1.42,0,0,0,102.11,18.42Z"/><path class="cls-2" d="M111.42,14a.58.58,0,0,1-.16.17.4.4,0,0,1-.22.05.66.66,0,0,1-.29-.07l-.33-.15a3.5,3.5,0,0,0-.42-.15,1.89,1.89,0,0,0-.54-.07,1.21,1.21,0,0,0-.73.19.61.61,0,0,0-.26.51.49.49,0,0,0,.15.36,1.29,1.29,0,0,0,.39.25,4.44,4.44,0,0,0,.55.2l.63.21a6.07,6.07,0,0,1,.63.26,2.23,2.23,0,0,1,.55.37,1.68,1.68,0,0,1,.39.53,1.75,1.75,0,0,1,.15.75,2.42,2.42,0,0,1-.19,1,2.13,2.13,0,0,1-.56.77,2.66,2.66,0,0,1-.92.5,4,4,0,0,1-1.27.18,4.12,4.12,0,0,1-1.43-.26,4.29,4.29,0,0,1-.62-.28,2.75,2.75,0,0,1-.5-.35l.45-.72a.52.52,0,0,1,.49-.27.62.62,0,0,1,.32.09l.33.19a2.73,2.73,0,0,0,.43.19,1.87,1.87,0,0,0,.62.09,1.64,1.64,0,0,0,.48-.06.92.92,0,0,0,.33-.17.69.69,0,0,0,.19-.25.71.71,0,0,0,.06-.28.53.53,0,0,0-.15-.39,1.33,1.33,0,0,0-.39-.26,4,4,0,0,0-.56-.2l-.64-.2a5.38,5.38,0,0,1-.64-.27,2.16,2.16,0,0,1-.55-.39,1.81,1.81,0,0,1-.39-.58,2.08,2.08,0,0,1-.15-.83,2.12,2.12,0,0,1,.17-.85,2,2,0,0,1,.53-.71,2.61,2.61,0,0,1,.87-.49,3.67,3.67,0,0,1,1.21-.18,3.74,3.74,0,0,1,1.4.25,3,3,0,0,1,1,.66Z"/><path class="cls-2" d="M114.67,16.45a2.28,2.28,0,0,0,.58,1.48,1.76,1.76,0,0,0,1.27.47,2.26,2.26,0,0,0,.69-.09,3.48,3.48,0,0,0,.51-.21l.4-.21a.75.75,0,0,1,.35-.09.41.41,0,0,1,.35.17l.56.7a3.06,3.06,0,0,1-.68.59,3.63,3.63,0,0,1-.77.37,4.13,4.13,0,0,1-.8.19,6.09,6.09,0,0,1-.78.05,3.93,3.93,0,0,1-1.41-.25,3.19,3.19,0,0,1-1.14-.74,3.43,3.43,0,0,1-.77-1.21,4.58,4.58,0,0,1-.28-1.67,4,4,0,0,1,.24-1.39,3.25,3.25,0,0,1,1.8-1.9,3.65,3.65,0,0,1,1.47-.28,3.58,3.58,0,0,1,1.28.22,2.83,2.83,0,0,1,1,.64,2.88,2.88,0,0,1,.66,1,3.89,3.89,0,0,1,.24,1.4,2.54,2.54,0,0,1,0,.36.62.62,0,0,1-.07.22.25.25,0,0,1-.13.12.61.61,0,0,1-.22,0Zm3-1.15a2.06,2.06,0,0,0-.08-.57,1.34,1.34,0,0,0-.26-.48,1.24,1.24,0,0,0-.44-.33,1.52,1.52,0,0,0-.64-.12,1.47,1.47,0,0,0-1.08.39,2,2,0,0,0-.51,1.12Z"/><path class="cls-2" d="M127,9.32V19.76h-1.19a.45.45,0,0,1-.48-.34l-.16-.63a4.16,4.16,0,0,1-.46.43,3,3,0,0,1-.52.34,2.71,2.71,0,0,1-.6.22,3,3,0,0,1-.7.08,2.32,2.32,0,0,1-1.06-.25,2.41,2.41,0,0,1-.84-.72,3.53,3.53,0,0,1-.55-1.16,5.72,5.72,0,0,1-.2-1.57,4.93,4.93,0,0,1,.22-1.5,3.66,3.66,0,0,1,.63-1.2,2.92,2.92,0,0,1,1-.79,2.81,2.81,0,0,1,1.27-.29,2.48,2.48,0,0,1,1,.18,2.63,2.63,0,0,1,.73.48V9.32Zm-1.93,5.1a1.54,1.54,0,0,0-.59-.44,1.82,1.82,0,0,0-.67-.13,1.51,1.51,0,0,0-.64.13,1.27,1.27,0,0,0-.49.42,2.09,2.09,0,0,0-.32.72,4.28,4.28,0,0,0-.11,1,4.92,4.92,0,0,0,.09,1,2,2,0,0,0,.26.68,1,1,0,0,0,.42.37,1.26,1.26,0,0,0,.55.12,1.68,1.68,0,0,0,.86-.2,2.51,2.51,0,0,0,.65-.57Z"/><rect class="cls-2" x="27.33" width="1" height="27.83"/><rect class="cls-2" width="203.75" height="2.72"/><rect class="cls-2" x="5.46" y="12.31" width="17.12" height="3.6" transform="translate(-5.88 14.05) rotate(-45)"/><rect class="cls-2" x="6.36" y="18.17" width="12.73" height="3.6"/><rect class="cls-2" x="6.36" y="9.04" width="3.6" height="12.73"/></svg>