<svg id="Layer_1" data-name="Layer 1" xmlns="http://www.w3.org/2000/svg" viewBox="0 0 3114 1761.56"><defs><style>.cls-1,.cls-2,.cls-3,.cls-4,.cls-5,.cls-6,.cls-7,.cls-8,.cls-9{fill:none;}.cls-1{stroke:#6952a1;}.cls-1,.cls-2,.cls-5,.cls-9{stroke-miterlimit:10;}.cls-1,.cls-2,.cls-5,.cls-7{stroke-width:11.25px;}.cls-2{stroke:#e01eae;}.cls-3{stroke:#ec1950;}.cls-3,.cls-4,.cls-6,.cls-7,.cls-8{stroke-linejoin:round;}.cls-3,.cls-4,.cls-9{stroke-width:11.25px;}.cls-4{stroke:#f37820;}.cls-5{stroke:#f6eb0f;}.cls-6,.cls-9{stroke:#313131;}.cls-6,.cls-8{stroke-width:11.25px;}.cls-7{stroke:#6cbd45;}.cls-8{stroke:#2ec1dd;}.cls-10{fill:#313131;}</style></defs><title>Artboard 8</title><line class="cls-1" x1="1650.99" y1="937.15" y2="937.15"/><line class="cls-2" x1="1658.94" y1="919.78" x2="990.96" y2="251.8"/><polyline class="cls-3" points="1712.11 925.16 1810.69 826.25 3114 826.25"/><polyline class="cls-4" points="1694.76 910.63 1824.78 780.75 1822.44 65.47"/><line class="cls-5" x1="1707.53" y1="913.98" x2="2617.53" y2="3.98"/><polyline class="cls-6" points="1553.69 1761.56 1553.69 1083.86 1666.96 970.59"/><line class="cls-7" x1="1088.27" y1="1533.69" x2="1658.94" y2="963.02"/><polyline class="cls-8" points="926.34 1442.41 1432.44 948.25 1650.99 948.25"/><circle class="cls-9" cx="1683.46" cy="942.78" r="32.47"/><path class="cls-10" d="M1745.89,948.05h-5.74V923.46h5.74Z"/><path class="cls-10" d="M1772.13,923.46v24.59h-3a2.58,2.58,0,0,1-1.11-.21,2.71,2.71,0,0,1-.89-.73l-11.6-14.67c0,.44.08.86.09,1.27s0,.8,0,1.16v13.18h-5V923.46h3a4.88,4.88,0,0,1,.63,0,1.61,1.61,0,0,1,.46.13,1.57,1.57,0,0,1,.39.26,4.68,4.68,0,0,1,.42.46l11.7,14.77q-.08-.71-.12-1.38t0-1.26v-13Z"/><path class="cls-10" d="M1794.56,928h-6.92v20.07h-5.71V928H1775v-4.52h19.55Z"/><path class="cls-10" d="M1803.18,927.85v5.74h7.73v4.22h-7.73v5.86h10.09v4.39h-15.83V923.46h15.83v4.39Z"/><path class="cls-10" d="M1836.91,948.05h-5.17a2.19,2.19,0,0,1-2.06-1.08l-4.09-7.14a2,2,0,0,0-.64-.67,2,2,0,0,0-1-.21h-1.45v9.1h-5.71V923.46h8a16.45,16.45,0,0,1,4.55.55,8.57,8.57,0,0,1,3.07,1.53,5.8,5.8,0,0,1,1.73,2.31,7.68,7.68,0,0,1,.54,2.9,7.83,7.83,0,0,1-.32,2.26,7,7,0,0,1-.95,2,7.2,7.2,0,0,1-1.54,1.61,8.25,8.25,0,0,1-2.12,1.17,5.11,5.11,0,0,1,1,.72,5,5,0,0,1,.88,1Zm-12.12-13a5.87,5.87,0,0,0,2-.3,3.59,3.59,0,0,0,1.34-.82,3.12,3.12,0,0,0,.76-1.22,4.68,4.68,0,0,0,.24-1.51,3.17,3.17,0,0,0-1.05-2.53,4.91,4.91,0,0,0-3.27-.91h-2.29V935Z"/><path class="cls-10" d="M1855.12,941.69a1.14,1.14,0,0,1,.41.08,1.11,1.11,0,0,1,.39.26l2.26,2.38a9.39,9.39,0,0,1-3.72,2.93,13,13,0,0,1-5.29,1,12.61,12.61,0,0,1-5-1,10.87,10.87,0,0,1-3.76-2.63,11.58,11.58,0,0,1-2.37-4,14.68,14.68,0,0,1-.83-5,13.87,13.87,0,0,1,.89-5.06,11.77,11.77,0,0,1,2.52-4,11.33,11.33,0,0,1,3.88-2.6,13,13,0,0,1,5-.93,13.3,13.3,0,0,1,2.61.24,12.79,12.79,0,0,1,2.29.68,10.42,10.42,0,0,1,2,1,10.21,10.21,0,0,1,1.59,1.32L1856,929a2.51,2.51,0,0,1-.44.43,1.14,1.14,0,0,1-.71.19,1.27,1.27,0,0,1-.57-.13,6.32,6.32,0,0,1-.57-.33l-.67-.42a5.06,5.06,0,0,0-.86-.42A7.08,7.08,0,0,0,1851,928a7.89,7.89,0,0,0-1.56-.14,6.28,6.28,0,0,0-2.59.52,5.65,5.65,0,0,0-2,1.53,7.09,7.09,0,0,0-1.32,2.46,11,11,0,0,0-.46,3.33,10.12,10.12,0,0,0,.51,3.36,7.37,7.37,0,0,0,1.4,2.47,5.93,5.93,0,0,0,2.07,1.53,6.18,6.18,0,0,0,2.53.52,12.09,12.09,0,0,0,1.42-.08,6.36,6.36,0,0,0,1.2-.25,4.83,4.83,0,0,0,1-.47,6.59,6.59,0,0,0,1-.75,2,2,0,0,1,.44-.28A1.14,1.14,0,0,1,1855.12,941.69Z"/><path class="cls-10" d="M1882.15,923.46v24.59h-5.74v-10.4h-10v10.4h-5.74V923.46h5.74v10.28h10V923.46Z"/><path class="cls-10" d="M1909,948.05h-4.42a1.93,1.93,0,0,1-1.2-.35,2.21,2.21,0,0,1-.69-.89l-1.45-4.29h-9.35l-1.45,4.29a2,2,0,0,1-.67.85,1.86,1.86,0,0,1-1.19.38h-4.46l9.52-24.59h5.84Zm-9.06-9.4-2.28-6.74q-.25-.64-.54-1.51t-.57-1.88q-.25,1-.54,1.91t-.54,1.52l-2.26,6.7Z"/><path class="cls-10" d="M1932.38,923.46v24.59h-3a2.58,2.58,0,0,1-1.11-.21,2.71,2.71,0,0,1-.89-.73l-11.6-14.67c0,.44.08.86.09,1.27s0,.8,0,1.16v13.18h-5V923.46h3a4.88,4.88,0,0,1,.63,0,1.61,1.61,0,0,1,.46.13,1.57,1.57,0,0,1,.39.26,4.68,4.68,0,0,1,.42.46l11.7,14.77q-.08-.71-.12-1.38t0-1.26v-13Z"/><path class="cls-10" d="M1949,935.31h8.74v10.38a12.93,12.93,0,0,1-4,2,15.83,15.83,0,0,1-4.46.63,15.34,15.34,0,0,1-5.53-1,12.73,12.73,0,0,1-4.26-2.63,11.54,11.54,0,0,1-2.73-4,12.84,12.84,0,0,1-1-5,13.59,13.59,0,0,1,.91-5.06,11.39,11.39,0,0,1,2.61-4,11.83,11.83,0,0,1,4.1-2.6,14.85,14.85,0,0,1,5.38-.93,15.65,15.65,0,0,1,2.89.25,14.12,14.12,0,0,1,2.49.69,11.5,11.5,0,0,1,2.09,1,11.35,11.35,0,0,1,1.69,1.32l-1.65,2.51a1.59,1.59,0,0,1-1,.73,1.77,1.77,0,0,1-1.33-.3c-.45-.27-.87-.5-1.27-.7a7.83,7.83,0,0,0-1.22-.48,8.14,8.14,0,0,0-1.32-.27,12.82,12.82,0,0,0-1.55-.08,7.09,7.09,0,0,0-2.89.57,6.19,6.19,0,0,0-2.19,1.6,7.22,7.22,0,0,0-1.39,2.47,10,10,0,0,0-.49,3.22,10.32,10.32,0,0,0,.54,3.48,7.18,7.18,0,0,0,1.53,2.57,6.52,6.52,0,0,0,2.36,1.6,8.17,8.17,0,0,0,3,.55,8,8,0,0,0,1.87-.2,10.47,10.47,0,0,0,1.63-.54v-3.73h-2.43a1.18,1.18,0,0,1-.84-.29,1,1,0,0,1-.3-.73Z"/><path class="cls-10" d="M1967.28,927.85v5.74H1975v4.22h-7.73v5.86h10.09v4.39h-15.83V923.46h15.83v4.39Z"/><path class="cls-10" d="M1749.48,965a.44.44,0,0,1,.33.15l.93,1a5.93,5.93,0,0,1-2.16,1.63,7.42,7.42,0,0,1-3.06.58,7.21,7.21,0,0,1-2.86-.54,6.27,6.27,0,0,1-2.17-1.52,6.72,6.72,0,0,1-1.38-2.33,8.7,8.7,0,0,1-.49-3,8.3,8.3,0,0,1,.52-3,6.8,6.8,0,0,1,1.45-2.33,6.5,6.5,0,0,1,2.24-1.51,7.45,7.45,0,0,1,2.88-.54,7,7,0,0,1,2.76.5,6.79,6.79,0,0,1,2.07,1.34l-.77,1.09a.88.88,0,0,1-.19.19.51.51,0,0,1-.3.08.81.81,0,0,1-.46-.19,7.28,7.28,0,0,0-.65-.41,4.77,4.77,0,0,0-2.47-.59,4.84,4.84,0,0,0-1.89.36,4.06,4.06,0,0,0-1.48,1,4.87,4.87,0,0,0-1,1.68A6.8,6.8,0,0,0,1741,961a6.68,6.68,0,0,0,.36,2.27,4.93,4.93,0,0,0,1,1.68,4.23,4.23,0,0,0,1.48,1,4.64,4.64,0,0,0,1.83.36,7.87,7.87,0,0,0,1.07-.07,4.19,4.19,0,0,0,.88-.21,4,4,0,0,0,.76-.37,4.81,4.81,0,0,0,.71-.54A.6.6,0,0,1,1749.48,965Z"/><path class="cls-10" d="M1756.57,957.81a5.42,5.42,0,0,1,2,.37,4.41,4.41,0,0,1,1.56,1,4.66,4.66,0,0,1,1,1.65,7,7,0,0,1,0,4.36,4.69,4.69,0,0,1-1,1.65,4.38,4.38,0,0,1-1.56,1.06,5.86,5.86,0,0,1-4.1,0,4.4,4.4,0,0,1-1.57-1.06,4.71,4.71,0,0,1-1-1.65,7,7,0,0,1,0-4.36,4.67,4.67,0,0,1,1-1.65,4.44,4.44,0,0,1,1.57-1A5.45,5.45,0,0,1,1756.57,957.81Zm0,8.83a2.37,2.37,0,0,0,2.05-.92,4.44,4.44,0,0,0,.68-2.64,4.49,4.49,0,0,0-.68-2.66,2.37,2.37,0,0,0-2.05-.94,2.4,2.4,0,0,0-2.08.94,4.46,4.46,0,0,0-.68,2.66,4.41,4.41,0,0,0,.68,2.64A2.41,2.41,0,0,0,1756.57,966.64Z"/><path class="cls-10" d="M1765.59,959.32a6.67,6.67,0,0,1,.69-.62,4.6,4.6,0,0,1,.75-.48,4,4,0,0,1,1.83-.42,3.64,3.64,0,0,1,1.48.28,3,3,0,0,1,1.07.79,3.39,3.39,0,0,1,.66,1.22,5.35,5.35,0,0,1,.22,1.58v6.49h-2.14v-6.49a2.42,2.42,0,0,0-.48-1.6,1.77,1.77,0,0,0-1.44-.57,2.79,2.79,0,0,0-1.34.33,4.56,4.56,0,0,0-1.15.9v7.43h-2.15V958h1.3a.53.53,0,0,1,.56.41Z"/><path class="cls-10" d="M1776.81,959.32a6.46,6.46,0,0,1,.68-.62,4.53,4.53,0,0,1,.76-.48,4,4,0,0,1,.85-.31,4.13,4.13,0,0,1,1-.11,3.63,3.63,0,0,1,1.47.28,3,3,0,0,1,1.07.79,3.41,3.41,0,0,1,.65,1.22,5.35,5.35,0,0,1,.22,1.58v6.49h-2.14v-6.49a2.43,2.43,0,0,0-.47-1.6,1.77,1.77,0,0,0-1.45-.57,2.78,2.78,0,0,0-1.33.33,4.6,4.6,0,0,0-1.16.9v7.43h-2.15V958h1.3a.53.53,0,0,1,.56.41Z"/><path class="cls-10" d="M1787.58,963.24a5.05,5.05,0,0,0,.27,1.5,3.07,3.07,0,0,0,.62,1.05,2.38,2.38,0,0,0,.92.63,3.31,3.31,0,0,0,1.2.21,3.64,3.64,0,0,0,1.09-.14,5.14,5.14,0,0,0,.8-.32l.58-.32a.87.87,0,0,1,.44-.14.46.46,0,0,1,.4.2l.61.79a3.87,3.87,0,0,1-.86.76,5,5,0,0,1-1,.5,5.84,5.84,0,0,1-1.11.28,7.67,7.67,0,0,1-1.11.08,5.35,5.35,0,0,1-2-.36,4.36,4.36,0,0,1-1.57-1,4.83,4.83,0,0,1-1-1.71,6.79,6.79,0,0,1-.37-2.35,5.71,5.71,0,0,1,.34-2,4.72,4.72,0,0,1,1-1.6,4.5,4.5,0,0,1,1.52-1.08,5,5,0,0,1,2-.4,4.85,4.85,0,0,1,1.74.31,3.81,3.81,0,0,1,1.38.89,4.12,4.12,0,0,1,.9,1.45,5.45,5.45,0,0,1,.32,1.95,1.36,1.36,0,0,1-.11.67.44.44,0,0,1-.4.17Zm5.13-1.32a3.15,3.15,0,0,0-.15-1,2.37,2.37,0,0,0-.46-.81,2.09,2.09,0,0,0-.75-.54,2.52,2.52,0,0,0-1-.19,2.48,2.48,0,0,0-1.84.67,3.25,3.25,0,0,0-.85,1.88Z"/><path class="cls-10" d="M1803.85,960a1.15,1.15,0,0,1-.19.2.42.42,0,0,1-.26.07.66.66,0,0,1-.36-.12l-.44-.27a3.54,3.54,0,0,0-.62-.26,2.89,2.89,0,0,0-.9-.12,2.83,2.83,0,0,0-1.22.25,2.37,2.37,0,0,0-.88.71,3.16,3.16,0,0,0-.53,1.13,5.87,5.87,0,0,0-.18,1.5,5.68,5.68,0,0,0,.19,1.53,3.31,3.31,0,0,0,.54,1.13,2.36,2.36,0,0,0,.86.7,2.61,2.61,0,0,0,1.13.24,2.84,2.84,0,0,0,1-.15,3.1,3.1,0,0,0,.65-.33l.45-.33a.61.61,0,0,1,.39-.15.46.46,0,0,1,.4.2l.61.79a4,4,0,0,1-.82.76,4.67,4.67,0,0,1-.95.5,5.05,5.05,0,0,1-1,.28,7.11,7.11,0,0,1-1.09.08,4.45,4.45,0,0,1-1.78-.36,4.15,4.15,0,0,1-1.44-1,4.9,4.9,0,0,1-1-1.65,6.44,6.44,0,0,1-.36-2.23,6.58,6.58,0,0,1,.32-2.09,4.74,4.74,0,0,1,.93-1.67,4.25,4.25,0,0,1,1.53-1.09,5.23,5.23,0,0,1,2.1-.4,5,5,0,0,1,2,.36,4.73,4.73,0,0,1,1.51,1Z"/><path class="cls-10" d="M1816.14,968.17H1814v-8.51h-5v5.79a1.19,1.19,0,0,0,.27.84.94.94,0,0,0,.72.29,1.26,1.26,0,0,0,.43-.07,2,2,0,0,0,.31-.14l.22-.14a.32.32,0,0,1,.19-.07.33.33,0,0,1,.29.2l.64,1a3.49,3.49,0,0,1-1.18.67,4.26,4.26,0,0,1-1.4.24,2.58,2.58,0,0,1-2-.71,2.79,2.79,0,0,1-.69-2v-5.94h-1.12a.45.45,0,0,1-.31-.12.43.43,0,0,1-.13-.34v-.87l1.65-.24.47-3a.56.56,0,0,1,.17-.27.47.47,0,0,1,.32-.11h1.1v3.35h7.12Zm.44-13.33a1.32,1.32,0,0,1-.12.54,1.47,1.47,0,0,1-.32.45,1.51,1.51,0,0,1-.46.31,1.37,1.37,0,0,1-.55.12,1.3,1.3,0,0,1-.54-.12,1.51,1.51,0,0,1-.76-.76,1.32,1.32,0,0,1-.12-.54,1.41,1.41,0,0,1,.12-.56,1.46,1.46,0,0,1,.31-.46,1.5,1.5,0,0,1,.45-.31,1.32,1.32,0,0,1,.54-.12,1.38,1.38,0,0,1,.55.12,1.52,1.52,0,0,1,.46.31,1.45,1.45,0,0,1,.32.46A1.41,1.41,0,0,1,1816.58,954.84Z"/><path class="cls-10" d="M1820.86,959.32a6.46,6.46,0,0,1,.68-.62,4.53,4.53,0,0,1,.76-.48,4,4,0,0,1,.85-.31,4.13,4.13,0,0,1,1-.11,3.63,3.63,0,0,1,1.47.28,3,3,0,0,1,1.07.79,3.41,3.41,0,0,1,.65,1.22,5.35,5.35,0,0,1,.22,1.58v6.49h-2.14v-6.49a2.43,2.43,0,0,0-.47-1.6,1.77,1.77,0,0,0-1.45-.57,2.78,2.78,0,0,0-1.33.33,4.6,4.6,0,0,0-1.16.9v7.43h-2.15V958h1.3a.53.53,0,0,1,.56.41Z"/><path class="cls-10" d="M1838.86,958.34v.8c0,.27-.16.43-.48.49l-1,.17a3.3,3.3,0,0,1,0,2.65,3.07,3.07,0,0,1-.82,1,3.67,3.67,0,0,1-1.24.66,5.09,5.09,0,0,1-1.56.23,5.43,5.43,0,0,1-.62,0l-.6-.09a1.41,1.41,0,0,0-.43.36.65.65,0,0,0-.14.39.53.53,0,0,0,.29.49,2.27,2.27,0,0,0,.76.23,9.52,9.52,0,0,0,1.09.09l1.24.07a11.83,11.83,0,0,1,1.24.17,3.57,3.57,0,0,1,1.08.38,2,2,0,0,1,1.05,1.88,2.74,2.74,0,0,1-.33,1.29,3.44,3.44,0,0,1-1,1.12,4.91,4.91,0,0,1-1.52.79,6.6,6.6,0,0,1-2.05.29,7.94,7.94,0,0,1-2-.22,4.65,4.65,0,0,1-1.41-.59,2.54,2.54,0,0,1-.84-.87,2.06,2.06,0,0,1-.28-1,1.78,1.78,0,0,1,.46-1.23,3,3,0,0,1,1.23-.8,1.75,1.75,0,0,1-.67-.55,1.51,1.51,0,0,1-.26-.92,1.69,1.69,0,0,1,.33-.94,2.59,2.59,0,0,1,1-.83,3.26,3.26,0,0,1-1.2-1.12,3,3,0,0,1-.44-1.62,3.1,3.1,0,0,1,.29-1.37,3,3,0,0,1,.83-1,3.8,3.8,0,0,1,1.25-.66,5.23,5.23,0,0,1,1.59-.23,4.62,4.62,0,0,1,2.3.55Zm-2.16,10.33a.76.76,0,0,0-.2-.54,1.31,1.31,0,0,0-.53-.32,3.85,3.85,0,0,0-.77-.17c-.29,0-.61-.06-.94-.08l-1,0q-.52,0-1-.09a2.68,2.68,0,0,0-.79.6,1.2,1.2,0,0,0-.3.81,1.08,1.08,0,0,0,.16.56,1.31,1.31,0,0,0,.48.45,2.88,2.88,0,0,0,.83.3,5.81,5.81,0,0,0,1.21.11,4.12,4.12,0,0,0,2.13-.44A1.3,1.3,0,0,0,1836.7,968.67Zm-3-5.69a2,2,0,0,0,1.5-.51,1.82,1.82,0,0,0,.5-1.33,1.78,1.78,0,0,0-.5-1.33,2.54,2.54,0,0,0-3,0,1.77,1.77,0,0,0-.5,1.33,2.07,2.07,0,0,0,.13.74,1.62,1.62,0,0,0,.38.58,1.7,1.7,0,0,0,.63.38A2.55,2.55,0,0,0,1833.71,963Z"/><path class="cls-10" d="M1855.94,965a.44.44,0,0,1,.33.15l.93,1a5.91,5.91,0,0,1-2.16,1.63,7.41,7.41,0,0,1-3.06.58,7.19,7.19,0,0,1-2.86-.54,6.29,6.29,0,0,1-2.18-1.52,6.75,6.75,0,0,1-1.38-2.33,8.75,8.75,0,0,1-.48-3,8.3,8.3,0,0,1,.52-3,6.8,6.8,0,0,1,1.45-2.33,6.48,6.48,0,0,1,2.24-1.51,7.44,7.44,0,0,1,2.88-.54,7,7,0,0,1,2.75.5,6.82,6.82,0,0,1,2.08,1.34l-.77,1.09a.88.88,0,0,1-.19.19.5.5,0,0,1-.3.08.8.8,0,0,1-.46-.19,7.28,7.28,0,0,0-.65-.41,5.14,5.14,0,0,0-1-.41,5.08,5.08,0,0,0-1.48-.18,4.85,4.85,0,0,0-1.89.36,4.09,4.09,0,0,0-1.48,1,4.91,4.91,0,0,0-1,1.68,6.86,6.86,0,0,0-.34,2.25,6.63,6.63,0,0,0,.36,2.27,4.93,4.93,0,0,0,1,1.68,4.22,4.22,0,0,0,1.48,1,4.64,4.64,0,0,0,1.83.36,7.89,7.89,0,0,0,1.07-.07,4.25,4.25,0,0,0,.88-.21,4.15,4.15,0,0,0,.76-.37,4.7,4.7,0,0,0,.7-.54A.61.61,0,0,1,1855.94,965Z"/><path class="cls-10" d="M1860.82,959.86a4.51,4.51,0,0,1,1.16-1.53,2.66,2.66,0,0,1,2.25-.48,1.76,1.76,0,0,1,.52.23l-.15,1.62a.39.39,0,0,1-.12.23.36.36,0,0,1-.22.07,2.45,2.45,0,0,1-.43-.05,3,3,0,0,0-.59-.06,2.25,2.25,0,0,0-.79.13,1.92,1.92,0,0,0-.62.38,2.54,2.54,0,0,0-.48.61,6,6,0,0,0-.39.82v6.34h-2.15V958H1860a.68.68,0,0,1,.47.13.77.77,0,0,1,.18.44Z"/><path class="cls-10" d="M1867.38,963.24a5.05,5.05,0,0,0,.27,1.5,3.07,3.07,0,0,0,.62,1.05,2.38,2.38,0,0,0,.92.63,3.31,3.31,0,0,0,1.2.21,3.64,3.64,0,0,0,1.09-.14,5.14,5.14,0,0,0,.8-.32l.58-.32a.87.87,0,0,1,.44-.14.46.46,0,0,1,.4.2l.61.79a3.87,3.87,0,0,1-.86.76,5,5,0,0,1-1,.5,5.84,5.84,0,0,1-1.11.28,7.67,7.67,0,0,1-1.11.08,5.35,5.35,0,0,1-2-.36,4.36,4.36,0,0,1-1.57-1,4.83,4.83,0,0,1-1-1.71,6.79,6.79,0,0,1-.37-2.35,5.71,5.71,0,0,1,.34-2,4.72,4.72,0,0,1,1-1.6,4.5,4.5,0,0,1,1.52-1.08,5,5,0,0,1,2-.4,4.85,4.85,0,0,1,1.74.31,3.81,3.81,0,0,1,1.38.89,4.12,4.12,0,0,1,.9,1.45,5.45,5.45,0,0,1,.32,1.95,1.36,1.36,0,0,1-.11.67.44.44,0,0,1-.4.17Zm5.13-1.32a3.15,3.15,0,0,0-.15-1,2.37,2.37,0,0,0-.46-.81,2.09,2.09,0,0,0-.75-.54,2.52,2.52,0,0,0-1-.19,2.48,2.48,0,0,0-1.84.67,3.25,3.25,0,0,0-.85,1.88Z"/><path class="cls-10" d="M1876.19,959.39a5.84,5.84,0,0,1,4.12-1.61,4.06,4.06,0,0,1,1.56.28,3.14,3.14,0,0,1,1.15.81,3.56,3.56,0,0,1,.71,1.23,4.91,4.91,0,0,1,.24,1.58v6.48h-1a.93.93,0,0,1-.47-.09.72.72,0,0,1-.27-.39l-.21-.83a9.71,9.71,0,0,1-.77.63,5,5,0,0,1-.79.46,3.89,3.89,0,0,1-.87.29,5.17,5.17,0,0,1-1,.09,3.8,3.8,0,0,1-1.16-.17,2.53,2.53,0,0,1-.92-.52,2.44,2.44,0,0,1-.62-.85,3,3,0,0,1-.22-1.2,2.31,2.31,0,0,1,.31-1.15,2.88,2.88,0,0,1,1-1,6.79,6.79,0,0,1,1.91-.73,13.87,13.87,0,0,1,2.93-.33v-.68a2.44,2.44,0,0,0-.47-1.64,1.73,1.73,0,0,0-1.38-.54,3,3,0,0,0-1,.16,4.76,4.76,0,0,0-.73.33l-.55.33a.92.92,0,0,1-.51.16.62.62,0,0,1-.37-.12.94.94,0,0,1-.26-.29Zm5.7,4.32a13.66,13.66,0,0,0-1.94.18,5.53,5.53,0,0,0-1.28.37,1.71,1.71,0,0,0-.71.54,1.17,1.17,0,0,0-.21.68,1.5,1.5,0,0,0,.12.62,1.11,1.11,0,0,0,.32.42,1.29,1.29,0,0,0,.48.24,2.3,2.3,0,0,0,.6.08,3.09,3.09,0,0,0,1.45-.32,4.51,4.51,0,0,0,1.18-.92Z"/><path class="cls-10" d="M1896.25,968.17h-2.15v-8.51h-5v5.79a1.19,1.19,0,0,0,.27.84.94.94,0,0,0,.72.29,1.26,1.26,0,0,0,.43-.07,2,2,0,0,0,.31-.14l.22-.14a.32.32,0,0,1,.19-.07.33.33,0,0,1,.29.2l.64,1a3.49,3.49,0,0,1-1.18.67,4.26,4.26,0,0,1-1.4.24,2.58,2.58,0,0,1-2-.71,2.79,2.79,0,0,1-.69-2v-5.94h-1.12a.45.45,0,0,1-.31-.12.43.43,0,0,1-.13-.34v-.87l1.65-.24.47-3a.56.56,0,0,1,.17-.27.47.47,0,0,1,.32-.11h1.1v3.35h7.12Zm.44-13.33a1.32,1.32,0,0,1-.12.54,1.47,1.47,0,0,1-.32.45,1.51,1.51,0,0,1-.46.31,1.37,1.37,0,0,1-.55.12,1.3,1.3,0,0,1-.54-.12,1.51,1.51,0,0,1-.76-.76,1.32,1.32,0,0,1-.12-.54,1.41,1.41,0,0,1,.12-.56,1.46,1.46,0,0,1,.31-.46,1.5,1.5,0,0,1,.45-.31,1.32,1.32,0,0,1,.54-.12,1.38,1.38,0,0,1,.55.12,1.52,1.52,0,0,1,.46.31,1.45,1.45,0,0,1,.32.46A1.41,1.41,0,0,1,1896.69,954.84Z"/><path class="cls-10" d="M1907.94,958l-4.1,10.2h-1.94l-4.1-10.2h1.77a.67.67,0,0,1,.41.13.57.57,0,0,1,.21.29l2.26,5.94c.09.28.18.56.25.83s.14.55.19.83c.05-.28.12-.56.2-.83s.16-.55.25-.83l2.3-5.94a.61.61,0,0,1,.22-.3.64.64,0,0,1,.39-.12Z"/><path class="cls-10" d="M1910.67,963.24a5.18,5.18,0,0,0,.27,1.5,3.14,3.14,0,0,0,.62,1.05,2.41,2.41,0,0,0,.92.63,3.32,3.32,0,0,0,1.2.21,3.64,3.64,0,0,0,1.09-.14,5.17,5.17,0,0,0,.8-.32l.58-.32a.87.87,0,0,1,.44-.14.46.46,0,0,1,.4.2l.61.79a3.87,3.87,0,0,1-.86.76,5.06,5.06,0,0,1-1,.5,5.86,5.86,0,0,1-1.11.28,7.65,7.65,0,0,1-1.11.08,5.34,5.34,0,0,1-2-.36,4.37,4.37,0,0,1-1.57-1,4.82,4.82,0,0,1-1-1.71,6.79,6.79,0,0,1-.37-2.35,5.76,5.76,0,0,1,.33-2,4.69,4.69,0,0,1,1-1.6,4.48,4.48,0,0,1,1.52-1.08,5,5,0,0,1,2-.4,4.86,4.86,0,0,1,1.74.31,3.8,3.8,0,0,1,1.38.89,4.12,4.12,0,0,1,.91,1.45,5.49,5.49,0,0,1,.32,1.95,1.39,1.39,0,0,1-.11.67.44.44,0,0,1-.4.17Zm5.13-1.32a3.15,3.15,0,0,0-.16-1,2.34,2.34,0,0,0-.46-.81,2.08,2.08,0,0,0-.74-.54,2.54,2.54,0,0,0-1-.19,2.49,2.49,0,0,0-1.84.67,3.24,3.24,0,0,0-.85,1.88Z"/><path class="cls-10" d="M1934.42,955.72h-4.49v12.45h-2.33V955.72h-4.5v-2h11.32Z"/><path class="cls-10" d="M1933.53,959.39a5.84,5.84,0,0,1,4.12-1.61,4.06,4.06,0,0,1,1.57.28,3.13,3.13,0,0,1,1.15.81,3.56,3.56,0,0,1,.71,1.23,4.85,4.85,0,0,1,.24,1.58v6.48h-1a.94.94,0,0,1-.47-.09.74.74,0,0,1-.27-.39l-.21-.83a9.73,9.73,0,0,1-.77.63,4.81,4.81,0,0,1-.79.46,3.88,3.88,0,0,1-.87.29,5.2,5.2,0,0,1-1,.09,3.78,3.78,0,0,1-1.15-.17,2.52,2.52,0,0,1-.93-.52,2.44,2.44,0,0,1-.62-.85,3,3,0,0,1-.22-1.2,2.33,2.33,0,0,1,.31-1.15,2.88,2.88,0,0,1,1-1,6.74,6.74,0,0,1,1.91-.73,13.83,13.83,0,0,1,2.92-.33v-.68a2.45,2.45,0,0,0-.47-1.64,1.73,1.73,0,0,0-1.38-.54,3,3,0,0,0-1,.16,4.67,4.67,0,0,0-.73.33l-.55.33a.92.92,0,0,1-.51.16.62.62,0,0,1-.37-.12.94.94,0,0,1-.25-.29Zm5.7,4.32a13.72,13.72,0,0,0-1.94.18,5.51,5.51,0,0,0-1.28.37,1.68,1.68,0,0,0-.71.54,1.16,1.16,0,0,0-.21.68,1.47,1.47,0,0,0,.12.62,1.11,1.11,0,0,0,.32.42,1.29,1.29,0,0,0,.48.24,2.3,2.3,0,0,0,.61.08,3.1,3.1,0,0,0,1.45-.32,4.51,4.51,0,0,0,1.17-.92Z"/><path class="cls-10" d="M1946,953.37v14.8h-2.15v-14.8Z"/><path class="cls-10" d="M1950.24,963.24a5.05,5.05,0,0,0,.27,1.5,3.07,3.07,0,0,0,.62,1.05,2.38,2.38,0,0,0,.92.63,3.31,3.31,0,0,0,1.2.21,3.64,3.64,0,0,0,1.09-.14,5.14,5.14,0,0,0,.8-.32l.58-.32a.87.87,0,0,1,.44-.14.46.46,0,0,1,.4.2l.61.79a3.87,3.87,0,0,1-.86.76,5,5,0,0,1-1,.5,5.84,5.84,0,0,1-1.11.28,7.67,7.67,0,0,1-1.11.08,5.35,5.35,0,0,1-2-.36,4.36,4.36,0,0,1-1.57-1,4.83,4.83,0,0,1-1-1.71,6.79,6.79,0,0,1-.37-2.35,5.71,5.71,0,0,1,.34-2,4.72,4.72,0,0,1,1-1.6,4.5,4.5,0,0,1,1.52-1.08,5,5,0,0,1,2-.4,4.85,4.85,0,0,1,1.74.31,3.81,3.81,0,0,1,1.38.89,4.12,4.12,0,0,1,.9,1.45,5.45,5.45,0,0,1,.32,1.95,1.36,1.36,0,0,1-.11.67.44.44,0,0,1-.4.17Zm5.13-1.32a3.15,3.15,0,0,0-.15-1,2.37,2.37,0,0,0-.46-.81,2.09,2.09,0,0,0-.75-.54,2.52,2.52,0,0,0-1-.19,2.48,2.48,0,0,0-1.84.67,3.25,3.25,0,0,0-.85,1.88Z"/><path class="cls-10" d="M1961.31,959.32a6.67,6.67,0,0,1,.69-.62,4.6,4.6,0,0,1,.75-.48,4,4,0,0,1,1.83-.42,3.64,3.64,0,0,1,1.48.28,3,3,0,0,1,1.07.79,3.39,3.39,0,0,1,.66,1.22,5.35,5.35,0,0,1,.22,1.58v6.49h-2.14v-6.49a2.42,2.42,0,0,0-.48-1.6,1.77,1.77,0,0,0-1.44-.57,2.79,2.79,0,0,0-1.34.33,4.56,4.56,0,0,0-1.15.9v7.43h-2.15V958h1.3a.53.53,0,0,1,.56.41Z"/><path class="cls-10" d="M1973.65,968.33a2.58,2.58,0,0,1-2-.71,2.79,2.79,0,0,1-.68-2v-5.94h-1.12a.46.46,0,0,1-.31-.12.44.44,0,0,1-.13-.34v-.87l1.65-.24.47-3a.56.56,0,0,1,.17-.27.47.47,0,0,1,.32-.11h1.1v3.35H1976v1.55h-2.83v5.79a1.18,1.18,0,0,0,.27.84.94.94,0,0,0,.72.29,1.25,1.25,0,0,0,.43-.07,1.87,1.87,0,0,0,.31-.14l.22-.14a.3.3,0,0,1,.47.13l.64,1a3.49,3.49,0,0,1-1.18.67A4.24,4.24,0,0,1,1973.65,968.33Z"/></svg>